M48
;Layer_Color=9474304
;FILE_FORMAT=2:5
INCH,LZ
;TYPE=PLATED
T1F00S00C0.02362
T2F00S00C0.02756
T3F00S00C0.03150
T4F00S00C0.03543
T5F00S00C0.03937
%
T01
X0105Y0045567
X0116
X012863Y0051
X0159
X0175567Y0065
X0211
Y0114
X0175567
X02625Y0105239
X02725
X02825
X02925
X03025
X03125
X03225
Y00735
X03125
X03025
X02925
X02825
X02725
X02625
X0159Y0071
Y0081
Y0091
Y0101
Y0111
Y0121
X012863
Y0111
Y0101
Y0091
Y0081
Y0071
Y0061
X0159
X0116Y0081
X0105
X0101Y0138
X0111
X0121
X0131
X0141
Y0169739
X0131
X0121
X0111
X0101
X0091
X0081
Y0138
X0091
T02
X0222Y009
X0242
X0159Y0136
Y0156
T03
X0089Y0057153
X0089Y0066847
X0012Y0085153
Y0094847
T04
X0009971Y0019962
Y0029962
X00855Y0022
Y0012
X0109
Y0022
X01325
Y0012
X0156
Y0022
X02705Y00245
Y00345
X03155
Y00245
X03505Y00645
X03605
Y01145
X03505
X03155Y01445
Y01545
X02705
Y01445
X02355Y01145
X02255
Y00645
X02355
X0061811Y0080158
Y009
Y0099843
X0038189
Y009
Y0080158
X0009971Y0149962
Y0159962
T05
X00912Y01011
Y01209
X01108Y0111
M30
