G04*
G04 #@! TF.GenerationSoftware,Altium Limited,Altium Designer,20.2.8 (258)*
G04*
G04 Layer_Color=2752767*
%FSLAX25Y25*%
%MOIN*%
G70*
G04*
G04 #@! TF.SameCoordinates,5E7CCD21-07A0-4AA7-BB04-5DF435F4F0B1*
G04*
G04*
G04 #@! TF.FilePolarity,Positive*
G04*
G01*
G75*
%ADD41C,0.00200*%
%ADD44C,0.00267*%
D41*
X80200Y168939D02*
Y170539D01*
X81800D01*
Y168939D01*
X80200D01*
X158200Y120200D02*
Y121800D01*
X159800D01*
Y120200D01*
X158200D01*
X261700Y104439D02*
Y106039D01*
X263300D01*
Y104439D01*
X261700D01*
X210200Y113200D02*
Y114800D01*
X211800D01*
Y113200D01*
X210200D01*
X174767D02*
Y114800D01*
X176367D01*
Y113200D01*
X174767D01*
Y64200D02*
Y65800D01*
X176367D01*
Y64200D01*
X174767D01*
X210200D02*
Y65800D01*
X211800D01*
Y64200D01*
X210200D01*
X12000Y94047D02*
X11200Y95647D01*
X12800D01*
X12000Y94047D01*
Y84353D02*
X11200Y85953D01*
X12800D01*
X12000Y84353D01*
X91200Y100300D02*
X91600Y100700D01*
X92000D01*
X91600Y101100D01*
X92000Y101500D01*
X91600D01*
X91200Y101900D01*
X90800Y101500D01*
X90400D01*
X90800Y101100D01*
X90400Y100700D01*
X90800D01*
X91200Y100300D01*
X110800Y110200D02*
X111200Y110600D01*
X111600D01*
X111200Y111000D01*
X111600Y111400D01*
X111200D01*
X110800Y111800D01*
X110400Y111400D01*
X110000D01*
X110400Y111000D01*
X110000Y110600D01*
X110400D01*
X110800Y110200D01*
X91200Y120100D02*
X91600Y120500D01*
X92000D01*
X91600Y120900D01*
X92000Y121300D01*
X91600D01*
X91200Y121700D01*
X90800Y121300D01*
X90400D01*
X90800Y120900D01*
X90400Y120500D01*
X90800D01*
X91200Y120100D01*
X140200Y168939D02*
Y170539D01*
X141800D01*
Y168939D01*
X140200D01*
X130200D02*
Y170539D01*
X131800D01*
Y168939D01*
X130200D01*
X120200D02*
Y170539D01*
X121800D01*
Y168939D01*
X120200D01*
X110200D02*
Y170539D01*
X111800D01*
Y168939D01*
X110200D01*
X100200D02*
Y170539D01*
X101800D01*
Y168939D01*
X100200D01*
X90200D02*
Y170539D01*
X91800D01*
Y168939D01*
X90200D01*
X140200Y137200D02*
Y138800D01*
X141800D01*
Y137200D01*
X140200D01*
X130200D02*
Y138800D01*
X131800D01*
Y137200D01*
X130200D01*
X120200D02*
Y138800D01*
X121800D01*
Y137200D01*
X120200D01*
X110200D02*
Y138800D01*
X111800D01*
Y137200D01*
X110200D01*
X100200D02*
Y138800D01*
X101800D01*
Y137200D01*
X100200D01*
X90200D02*
Y138800D01*
X91800D01*
Y137200D01*
X90200D01*
X80200D02*
Y138800D01*
X81800D01*
Y137200D01*
X80200D01*
X127830Y120200D02*
Y121800D01*
X129430D01*
Y120200D01*
X127830D01*
Y110200D02*
Y111800D01*
X129430D01*
Y110200D01*
X127830D01*
Y100200D02*
Y101800D01*
X129430D01*
Y100200D01*
X127830D01*
Y90200D02*
Y91800D01*
X129430D01*
Y90200D01*
X127830D01*
Y80200D02*
Y81800D01*
X129430D01*
Y80200D01*
X127830D01*
Y70200D02*
Y71800D01*
X129430D01*
Y70200D01*
X127830D01*
Y60200D02*
Y61800D01*
X129430D01*
Y60200D01*
X127830D01*
Y50200D02*
Y51800D01*
X129430D01*
Y50200D01*
X127830D01*
X158200Y110200D02*
Y111800D01*
X159800D01*
Y110200D01*
X158200D01*
Y100200D02*
Y101800D01*
X159800D01*
Y100200D01*
X158200D01*
Y90200D02*
Y91800D01*
X159800D01*
Y90200D01*
X158200D01*
Y80200D02*
Y81800D01*
X159800D01*
Y80200D01*
X158200D01*
Y70200D02*
Y71800D01*
X159800D01*
Y70200D01*
X158200D01*
Y60200D02*
Y61800D01*
X159800D01*
Y60200D01*
X158200D01*
Y50200D02*
Y51800D01*
X159800D01*
Y50200D01*
X158200D01*
X89000Y56353D02*
X88200Y57953D01*
X89800D01*
X89000Y56353D01*
X89000Y66047D02*
X88200Y67647D01*
X89800D01*
X89000Y66047D01*
X104200Y44767D02*
Y46367D01*
X105800D01*
Y44767D01*
X104200D01*
Y80200D02*
Y81800D01*
X105800D01*
Y80200D01*
X104200D01*
X241200Y89200D02*
X241600Y90000D01*
X241200Y90800D01*
X242000Y90400D01*
X242800Y90800D01*
X242400Y90000D01*
X242800Y89200D01*
X242000Y89600D01*
X241200Y89200D01*
X221200D02*
X221600Y90000D01*
X221200Y90800D01*
X222000Y90400D01*
X222800Y90800D01*
X222400Y90000D01*
X222800Y89200D01*
X222000Y89600D01*
X221200Y89200D01*
X321700Y104439D02*
Y106039D01*
X323300D01*
Y104439D01*
X321700D01*
X311700D02*
Y106039D01*
X313300D01*
Y104439D01*
X311700D01*
X301700D02*
Y106039D01*
X303300D01*
Y104439D01*
X301700D01*
X291700D02*
Y106039D01*
X293300D01*
Y104439D01*
X291700D01*
X281700D02*
Y106039D01*
X283300D01*
Y104439D01*
X281700D01*
X271700D02*
Y106039D01*
X273300D01*
Y104439D01*
X271700D01*
X321700Y72700D02*
Y74300D01*
X323300D01*
Y72700D01*
X321700D01*
X311700D02*
Y74300D01*
X313300D01*
Y72700D01*
X311700D01*
X301700D02*
Y74300D01*
X303300D01*
Y72700D01*
X301700D01*
X291700D02*
Y74300D01*
X293300D01*
Y72700D01*
X291700D01*
X281700D02*
Y74300D01*
X283300D01*
Y72700D01*
X281700D01*
X271700D02*
Y74300D01*
X273300D01*
Y72700D01*
X271700D01*
X261700D02*
Y74300D01*
X263300D01*
Y72700D01*
X261700D01*
X158200Y135200D02*
X158600Y136000D01*
X158200Y136800D01*
X159000Y136400D01*
X159800Y136800D01*
X159400Y136000D01*
X159800Y135200D01*
X159000Y135600D01*
X158200Y135200D01*
Y155200D02*
X158600Y156000D01*
X158200Y156800D01*
X159000Y156400D01*
X159800Y156800D01*
X159400Y156000D01*
X159800Y155200D01*
X159000Y155600D01*
X158200Y155200D01*
X115200Y80200D02*
Y81800D01*
X116800D01*
Y80200D01*
X115200D01*
Y44767D02*
Y46367D01*
X116800D01*
Y44767D01*
X115200D01*
D44*
X62611Y99843D02*
G03*
X62611Y99843I-800J0D01*
G01*
Y90000D02*
G03*
X62611Y90000I-800J0D01*
G01*
Y80158D02*
G03*
X62611Y80158I-800J0D01*
G01*
X38989Y99843D02*
G03*
X38989Y99843I-800J0D01*
G01*
Y90000D02*
G03*
X38989Y90000I-800J0D01*
G01*
Y80158D02*
G03*
X38989Y80158I-800J0D01*
G01*
X10771Y29962D02*
G03*
X10771Y29962I-800J0D01*
G01*
Y19962D02*
G03*
X10771Y19962I-800J0D01*
G01*
Y159962D02*
G03*
X10771Y159962I-800J0D01*
G01*
Y149962D02*
G03*
X10771Y149962I-800J0D01*
G01*
X271300Y34500D02*
G03*
X271300Y34500I-800J0D01*
G01*
Y24500D02*
G03*
X271300Y24500I-800J0D01*
G01*
X316300Y34500D02*
G03*
X316300Y34500I-800J0D01*
G01*
Y24500D02*
G03*
X316300Y24500I-800J0D01*
G01*
X351300Y64500D02*
G03*
X351300Y64500I-800J0D01*
G01*
X361300D02*
G03*
X361300Y64500I-800J0D01*
G01*
X351300Y114500D02*
G03*
X351300Y114500I-800J0D01*
G01*
X361300D02*
G03*
X361300Y114500I-800J0D01*
G01*
X316300Y144500D02*
G03*
X316300Y144500I-800J0D01*
G01*
Y154500D02*
G03*
X316300Y154500I-800J0D01*
G01*
X271300Y144500D02*
G03*
X271300Y144500I-800J0D01*
G01*
Y154500D02*
G03*
X271300Y154500I-800J0D01*
G01*
X236300Y114500D02*
G03*
X236300Y114500I-800J0D01*
G01*
X226300D02*
G03*
X226300Y114500I-800J0D01*
G01*
X236300Y64500D02*
G03*
X236300Y64500I-800J0D01*
G01*
X226300D02*
G03*
X226300Y64500I-800J0D01*
G01*
X86300Y12000D02*
G03*
X86300Y12000I-800J0D01*
G01*
Y22000D02*
G03*
X86300Y22000I-800J0D01*
G01*
X109800Y12000D02*
G03*
X109800Y12000I-800J0D01*
G01*
Y22000D02*
G03*
X109800Y22000I-800J0D01*
G01*
X133300Y12000D02*
G03*
X133300Y12000I-800J0D01*
G01*
Y22000D02*
G03*
X133300Y22000I-800J0D01*
G01*
X156800Y12000D02*
G03*
X156800Y12000I-800J0D01*
G01*
Y22000D02*
G03*
X156800Y22000I-800J0D01*
G01*
M02*
