G04*
G04 #@! TF.GenerationSoftware,Altium Limited,Altium Designer,20.2.8 (258)*
G04*
G04 Layer_Color=128*
%FSLAX25Y25*%
%MOIN*%
G70*
G04*
G04 #@! TF.SameCoordinates,5E7CCD21-07A0-4AA7-BB04-5DF435F4F0B1*
G04*
G04*
G04 #@! TF.FilePolarity,Positive*
G04*
G01*
G75*
%ADD41C,0.00200*%
D41*
X79819Y169739D02*
X82181D01*
X81000Y168558D02*
Y170920D01*
X157819Y121000D02*
X160181D01*
X159000Y119819D02*
Y122181D01*
X261319Y105239D02*
X263681D01*
X262500Y104058D02*
Y106420D01*
X209819Y114000D02*
X212181D01*
X211000Y112819D02*
Y115181D01*
X174386Y114000D02*
X176748D01*
X175567Y112819D02*
Y115181D01*
X174386Y65000D02*
X176748D01*
X175567Y63819D02*
Y66181D01*
X209819Y65000D02*
X212181D01*
X211000Y63819D02*
Y66181D01*
X60039Y99843D02*
X63583D01*
X61811Y98071D02*
Y101614D01*
X60039Y90000D02*
X63583D01*
X61811Y88228D02*
Y91772D01*
X60039Y80158D02*
X63583D01*
X61811Y78386D02*
Y81929D01*
X36417Y99843D02*
X39961D01*
X38189Y98071D02*
Y101614D01*
X36417Y90000D02*
X39961D01*
X38189Y88228D02*
Y91772D01*
X36417Y80158D02*
X39961D01*
X38189Y78386D02*
Y81929D01*
X10425Y94847D02*
X13575D01*
X12000Y93272D02*
Y96422D01*
X10425Y85153D02*
X13575D01*
X12000Y83578D02*
Y86728D01*
X8199Y29962D02*
X11743D01*
X9971Y28191D02*
Y31734D01*
X8199Y19962D02*
X11743D01*
X9971Y18191D02*
Y21734D01*
X8199Y159962D02*
X11743D01*
X9971Y158191D02*
Y161734D01*
X8199Y149962D02*
X11743D01*
X9971Y148191D02*
Y151734D01*
X89231Y101100D02*
X93168D01*
X91200Y99132D02*
Y103068D01*
X108832Y111000D02*
X112768D01*
X110800Y109031D02*
Y112969D01*
X89231Y120900D02*
X93168D01*
X91200Y118931D02*
Y122869D01*
X139819Y169739D02*
X142181D01*
X141000Y168558D02*
Y170920D01*
X129819Y169739D02*
X132181D01*
X131000Y168558D02*
Y170920D01*
X119819Y169739D02*
X122181D01*
X121000Y168558D02*
Y170920D01*
X109819Y169739D02*
X112181D01*
X111000Y168558D02*
Y170920D01*
X99819Y169739D02*
X102181D01*
X101000Y168558D02*
Y170920D01*
X89819Y169739D02*
X92181D01*
X91000Y168558D02*
Y170920D01*
X139819Y138000D02*
X142181D01*
X141000Y136819D02*
Y139181D01*
X129819Y138000D02*
X132181D01*
X131000Y136819D02*
Y139181D01*
X119819Y138000D02*
X122181D01*
X121000Y136819D02*
Y139181D01*
X109819Y138000D02*
X112181D01*
X111000Y136819D02*
Y139181D01*
X99819Y138000D02*
X102181D01*
X101000Y136819D02*
Y139181D01*
X89819Y138000D02*
X92181D01*
X91000Y136819D02*
Y139181D01*
X79819Y138000D02*
X82181D01*
X81000Y136819D02*
Y139181D01*
X127449Y121000D02*
X129811D01*
X128630Y119819D02*
Y122181D01*
X127449Y111000D02*
X129811D01*
X128630Y109819D02*
Y112181D01*
X127449Y101000D02*
X129811D01*
X128630Y99819D02*
Y102181D01*
X127449Y91000D02*
X129811D01*
X128630Y89819D02*
Y92181D01*
X127449Y81000D02*
X129811D01*
X128630Y79819D02*
Y82181D01*
X127449Y71000D02*
X129811D01*
X128630Y69819D02*
Y72181D01*
X127449Y61000D02*
X129811D01*
X128630Y59819D02*
Y62181D01*
X127449Y51000D02*
X129811D01*
X128630Y49819D02*
Y52181D01*
X157819Y111000D02*
X160181D01*
X159000Y109819D02*
Y112181D01*
X157819Y101000D02*
X160181D01*
X159000Y99819D02*
Y102181D01*
X157819Y91000D02*
X160181D01*
X159000Y89819D02*
Y92181D01*
X157819Y81000D02*
X160181D01*
X159000Y79819D02*
Y82181D01*
X157819Y71000D02*
X160181D01*
X159000Y69819D02*
Y72181D01*
X157819Y61000D02*
X160181D01*
X159000Y59819D02*
Y62181D01*
X157819Y51000D02*
X160181D01*
X159000Y49819D02*
Y52181D01*
X87425Y57153D02*
X90575D01*
X89000Y55578D02*
Y58728D01*
X87425Y66847D02*
X90575D01*
X89000Y65272D02*
Y68422D01*
X103819Y45567D02*
X106181D01*
X105000Y44386D02*
Y46748D01*
X103819Y81000D02*
X106181D01*
X105000Y79819D02*
Y82181D01*
X268728Y34500D02*
X272272D01*
X270500Y32728D02*
Y36272D01*
X268728Y24500D02*
X272272D01*
X270500Y22728D02*
Y26272D01*
X313728Y34500D02*
X317272D01*
X315500Y32728D02*
Y36272D01*
X313728Y24500D02*
X317272D01*
X315500Y22728D02*
Y26272D01*
X348728Y64500D02*
X352272D01*
X350500Y62728D02*
Y66272D01*
X358728Y64500D02*
X362272D01*
X360500Y62728D02*
Y66272D01*
X348728Y114500D02*
X352272D01*
X350500Y112728D02*
Y116272D01*
X358728Y114500D02*
X362272D01*
X360500Y112728D02*
Y116272D01*
X313728Y144500D02*
X317272D01*
X315500Y142728D02*
Y146272D01*
X313728Y154500D02*
X317272D01*
X315500Y152728D02*
Y156272D01*
X268728Y144500D02*
X272272D01*
X270500Y142728D02*
Y146272D01*
X268728Y154500D02*
X272272D01*
X270500Y152728D02*
Y156272D01*
X233728Y114500D02*
X237272D01*
X235500Y112728D02*
Y116272D01*
X223728Y114500D02*
X227272D01*
X225500Y112728D02*
Y116272D01*
X233728Y64500D02*
X237272D01*
X235500Y62728D02*
Y66272D01*
X223728Y64500D02*
X227272D01*
X225500Y62728D02*
Y66272D01*
X240622Y90000D02*
X243378D01*
X242000Y88622D02*
Y91378D01*
X220622Y90000D02*
X223378D01*
X222000Y88622D02*
Y91378D01*
X321319Y105239D02*
X323681D01*
X322500Y104058D02*
Y106420D01*
X311319Y105239D02*
X313681D01*
X312500Y104058D02*
Y106420D01*
X301319Y105239D02*
X303681D01*
X302500Y104058D02*
Y106420D01*
X291319Y105239D02*
X293681D01*
X292500Y104058D02*
Y106420D01*
X281319Y105239D02*
X283681D01*
X282500Y104058D02*
Y106420D01*
X271319Y105239D02*
X273681D01*
X272500Y104058D02*
Y106420D01*
X321319Y73500D02*
X323681D01*
X322500Y72319D02*
Y74681D01*
X311319Y73500D02*
X313681D01*
X312500Y72319D02*
Y74681D01*
X301319Y73500D02*
X303681D01*
X302500Y72319D02*
Y74681D01*
X291319Y73500D02*
X293681D01*
X292500Y72319D02*
Y74681D01*
X281319Y73500D02*
X283681D01*
X282500Y72319D02*
Y74681D01*
X271319Y73500D02*
X273681D01*
X272500Y72319D02*
Y74681D01*
X261319Y73500D02*
X263681D01*
X262500Y72319D02*
Y74681D01*
X83728Y12000D02*
X87272D01*
X85500Y10228D02*
Y13772D01*
X83728Y22000D02*
X87272D01*
X85500Y20228D02*
Y23772D01*
X107228Y12000D02*
X110772D01*
X109000Y10228D02*
Y13772D01*
X107228Y22000D02*
X110772D01*
X109000Y20228D02*
Y23772D01*
X130728Y12000D02*
X134272D01*
X132500Y10228D02*
Y13772D01*
X130728Y22000D02*
X134272D01*
X132500Y20228D02*
Y23772D01*
X154228Y12000D02*
X157772D01*
X156000Y10228D02*
Y13772D01*
X154228Y22000D02*
X157772D01*
X156000Y20228D02*
Y23772D01*
X157622Y136000D02*
X160378D01*
X159000Y134622D02*
Y137378D01*
X157622Y156000D02*
X160378D01*
X159000Y154622D02*
Y157378D01*
X114819Y81000D02*
X117181D01*
X116000Y79819D02*
Y82181D01*
X114819Y45567D02*
X117181D01*
X116000Y44386D02*
Y46748D01*
M02*
