*
%FSLAX26Y26*%
%MOIN*%
%ADD10C,0.007874*%
%IPPOS*%
%LNgko*%
%LPD*%
G75*
G54D10*
X2136870Y582750D02*
X1780379D01*
X1700000Y0D01*
X0D01*
Y1800000D01*
X1700000D01*
X1780975Y1212930D01*
X2135160D01*
X2146254Y1239762D01*
X2158254Y1266200D01*
X2171145Y1292216D01*
X2184912Y1317779D01*
X2199541Y1342859D01*
X2215013Y1367428D01*
X2231312Y1391456D01*
X2248418Y1414917D01*
X2266311Y1437783D01*
X2284970Y1460027D01*
X2304375Y1481625D01*
X2324503Y1502550D01*
X2345330Y1522780D01*
X2366833Y1542290D01*
X2388986Y1561058D01*
X2411765Y1579062D01*
X2435142Y1596282D01*
X2459091Y1612697D01*
X2483583Y1628289D01*
X2508592Y1643040D01*
X2534087Y1656932D01*
X2560040Y1669950D01*
X2586420Y1682078D01*
X2613197Y1693303D01*
X2640340Y1703611D01*
X2667818Y1712991D01*
X2695599Y1721431D01*
X2723650Y1728923D01*
X2751940Y1735457D01*
X2780436Y1741026D01*
X2809104Y1745623D01*
X2837912Y1749243D01*
X2866826Y1751882D01*
X2895814Y1753537D01*
X2924841Y1754206D01*
X2953873Y1753888D01*
X2982879Y1752583D01*
X3011823Y1750294D01*
X3040673Y1747022D01*
X3069394Y1742772D01*
X3097955Y1737548D01*
X3126322Y1731356D01*
X3154462Y1724204D01*
X3182342Y1716100D01*
X3209931Y1707053D01*
X3237197Y1697074D01*
X3264108Y1686174D01*
X3290633Y1674365D01*
X3316741Y1661662D01*
X3342402Y1648079D01*
X3367587Y1633632D01*
X3392267Y1618337D01*
X3416412Y1602212D01*
X3439996Y1585276D01*
X3462990Y1567549D01*
X3485369Y1549050D01*
X3507106Y1529801D01*
X3528176Y1509825D01*
X3548555Y1489144D01*
X3568220Y1467782D01*
X3587147Y1445765D01*
X3605315Y1423117D01*
X3622703Y1399865D01*
X3639291Y1376035D01*
X3655059Y1351656D01*
X3669989Y1326754D01*
X3684065Y1301359D01*
X3697270Y1275501D01*
X3709588Y1249209D01*
X3721005Y1222514D01*
X3731509Y1195446D01*
X3741087Y1168036D01*
X3749728Y1140317D01*
X3757421Y1112321D01*
X3764159Y1084079D01*
X3769933Y1055624D01*
X3774737Y1026990D01*
X3778565Y998209D01*
X3781413Y969314D01*
X3783277Y940339D01*
X3784155Y911318D01*
X3784046Y882284D01*
X3782951Y853270D01*
X3780870Y824310D01*
X3777807Y795437D01*
X3773764Y766685D01*
X3768746Y738088D01*
X3762759Y709677D01*
X3755810Y681486D01*
X3747907Y653548D01*
X3739060Y625894D01*
X3729277Y598557D01*
X3718571Y571569D01*
X3706954Y544959D01*
X3694440Y518760D01*
X3681042Y493001D01*
X3666777Y467713D01*
X3651661Y442924D01*
X3635711Y418663D01*
X3618945Y394958D01*
X3601384Y371836D01*
X3583047Y349325D01*
X3563956Y327450D01*
X3544132Y306236D01*
X3523598Y285708D01*
X3502379Y265890D01*
X3480499Y246804D01*
X3457983Y228473D01*
X3434857Y210918D01*
X3411147Y194159D01*
X3386882Y178215D01*
X3362089Y163105D01*
X3336796Y148847D01*
X3311034Y135456D01*
X3284832Y122949D01*
X3258219Y111339D01*
X3231228Y100640D01*
X3203888Y90865D01*
X3176232Y82025D01*
X3148292Y74129D01*
X3120099Y67188D01*
X3091687Y61208D01*
X3063088Y56198D01*
X3034335Y52163D01*
X3005462Y49107D01*
X2976501Y47034D01*
X2947487Y45946D01*
X2918452Y45846D01*
X2889431Y46731D01*
X2860457Y48603D01*
X2831563Y51458D01*
X2802783Y55294D01*
X2774150Y60105D01*
X2745697Y65887D01*
X2717457Y72632D01*
X2689462Y80334D01*
X2661745Y88982D01*
X2634339Y98567D01*
X2607273Y109078D01*
X2580581Y120502D01*
X2554292Y132827D01*
X2528438Y146039D01*
X2503047Y160121D01*
X2478149Y175059D01*
X2453774Y190833D01*
X2429948Y207427D01*
X2406701Y224821D01*
X2384058Y242996D01*
X2362045Y261929D01*
X2340689Y281599D01*
X2320014Y301984D01*
X2300043Y323059D01*
X2280800Y344801D01*
X2262307Y367185D01*
X2244586Y390184D01*
X2227656Y413772D01*
X2211538Y437921D01*
X2196249Y462605D01*
X2181809Y487794D01*
X2168233Y513459D01*
X2155537Y539570D01*
X2143735Y566098D01*
X2139340Y576644D01*
X2136870Y582750D01*
M02*
