*
%FSLAX26Y26*%
%MOIN*%
%ADD10C,0.037180*%
%ADD11C,0.013180*%
%ADD12C,0.025180*%
%ADD13C,0.019180*%
%ADD14C,0.048420*%
%ADD15C,0.064170*%
%ADD16C,0.068110*%
%ADD17R,0.068110X0.068110*%
%ADD18R,0.060240X0.060240*%
%ADD19C,0.060240*%
%ADD20C,0.079920*%
%ADD21R,0.048420X0.048420*%
%ADD22C,0.072050*%
%ADD23C,0.020000*%
%ADD24C,0.047496*%
%IPPOS*%
%LNgtl*%
%LPD*%
G75*
G54D10*
X3580000Y895000D02*
X3579508Y899935D01*
X3578052Y904675D01*
X3575689Y909035D01*
X3572511Y912843D01*
X3568645Y915948D01*
X3564242Y918229D01*
X3559475Y919596D01*
X3554532Y919996D01*
X3549607Y919411D01*
X3544895Y917867D01*
X3540580Y915422D01*
X3536832Y912174D01*
X3533800Y908250D01*
X3531602Y903805D01*
X3530324Y899013D01*
X3530018Y894063D01*
X3530694Y889151D01*
X3532327Y884468D01*
X3534852Y880200D01*
X3538169Y876514D01*
X3542150Y873556D01*
X3546635Y871441D01*
X3551450Y870253D01*
X3556405Y870039D01*
X3561304Y870808D01*
X3565955Y872528D01*
X3570175Y875133D01*
X3573798Y878519D01*
X3576681Y882554D01*
X3578712Y887078D01*
X3579809Y891914D01*
X3580000Y895000D01*
G54D11*
X1638920Y520040D02*
X1639171Y523461D01*
X1638445Y526813D01*
X1637230Y529210D01*
X1603630Y449360D02*
X1606960Y450181D01*
X1609921Y451911D01*
X1612272Y454408D01*
X1613020Y455620D01*
X1670000Y531930D02*
X1669523Y535326D01*
X1668580Y537640D01*
X1623360Y418720D02*
X1626600Y419843D01*
X1629391Y421837D01*
X1631503Y424538D01*
X1632360Y426380D01*
X1644010Y393330D02*
X1647148Y394716D01*
X1649766Y396932D01*
X1651650Y399798D01*
X1652090Y400870D01*
X1693580Y517350D02*
X1694750Y520574D01*
X1695000Y523010D01*
X1718710Y538210D02*
X1718140Y541130D01*
X1669720Y372840D02*
X1672674Y374581D01*
X1675014Y377087D01*
X1676550Y380153D01*
X1676660Y380500D01*
X1652710Y726060D02*
X1652041Y729423D01*
X1650449Y732459D01*
X1650200Y732790D01*
X1702490Y357570D02*
X1704588Y360281D01*
X1705820Y363420D01*
X1695000Y536950D02*
X1694525Y540347D01*
X1693600Y542630D01*
X1160000Y1344820D02*
X1160504Y1341427D01*
X1161947Y1338316D01*
X1163390Y1336510D01*
X1700070Y865920D02*
X1699535Y869308D01*
X1698064Y872407D01*
X1697520Y873160D01*
X3225000Y1052390D02*
X3530000Y910000D01*
X1637220Y529220D02*
X1637230Y529210D01*
X1613020Y455620D02*
X1632970Y492700D01*
X1634460Y499550D02*
X1638920Y520040D01*
X1632970Y492700D02*
X1634460Y499550D01*
X1632970Y492700D03*
X1629180Y541440D02*
X1637220Y529220D01*
X1446330Y507070D02*
X1517700Y466000D01*
X1569900Y445990D02*
X1603630Y449360D01*
X1569900Y445990D03*
X1517700Y466000D02*
X1569900Y445990D01*
X1286300Y610000D02*
X1446330Y507070D01*
X1590000Y610000D02*
X1629180Y541440D01*
X1129610Y306240D02*
X1294890Y355370D01*
X1623360Y418720D01*
X1294890Y355370D03*
X1668570Y537660D02*
X1668580Y537640D01*
X1623360Y418720D03*
X1666770Y519560D02*
X1670000Y528290D01*
X1632360Y426380D02*
X1666770Y519560D01*
X1090000Y220000D02*
X1380170Y319490D01*
X1644010Y393330D03*
X1695000Y536950D02*
Y523010D01*
X1652090Y400870D02*
X1693580Y517350D01*
X1380170Y319490D02*
X1644010Y393330D01*
X1325000Y220000D02*
X1500700Y303530D01*
X1669720Y372840D01*
X1500700Y303530D03*
X1716540Y512260D02*
X1719790Y523000D01*
X1676660Y380500D02*
X1716540Y512260D01*
X1695000Y536950D03*
X1590000Y810000D02*
X1650190Y732810D01*
X1652710Y726060D02*
X1659450Y604970D01*
X1650190Y732810D02*
X1650200Y732790D01*
X1560000Y220000D02*
X1702490Y357570D01*
X1740920Y509280D02*
X1744320Y523390D01*
X1705820Y363420D02*
X1740920Y509280D01*
X1650650Y571040D03*
X1653910Y564980D01*
X1668570Y537660D01*
X1670000Y531930D02*
Y528290D01*
D03*
X1670720Y581740D02*
X1676080Y575450D01*
X1684290Y560070D01*
X1693590Y542650D01*
X1693600Y542630D01*
X855000Y220000D02*
X1129610Y306240D01*
X1707360Y573760D02*
X1709570Y567060D01*
X1718130Y541140D01*
X1718140Y541130D01*
X1718710Y538210D02*
X1719790Y523000D01*
X1732240Y583620D03*
X1734490Y572380D01*
X1744320Y523390D01*
X1633420Y635100D02*
X1636740Y595140D01*
X1644100Y577680D02*
X1650650Y571040D01*
X1636740Y595140D02*
X1644100Y577680D01*
X1659450Y604970D02*
X1670720Y581740D01*
X1670000Y805000D02*
X1681170Y620070D01*
X1687600Y601830D02*
X1707360Y573760D01*
X1681170Y620070D02*
X1687600Y601830D01*
X1704290Y629990D02*
X1711320Y611010D01*
X1700070Y865920D02*
X1704290Y629990D01*
X1711320Y611010D02*
X1732240Y583620D01*
X1163390Y1336510D02*
X1286300Y1210000D01*
X1160000Y1344820D02*
Y1344870D01*
X1159990Y1544100D02*
X1160000Y1344870D01*
X1631360Y652090D02*
X1633420Y635100D01*
X1590000Y710000D02*
X1631360Y652090D01*
X1590000Y910000D02*
X1670000Y805000D01*
X1697510Y873170D02*
X1697520Y873160D01*
X1590000Y1010000D02*
X1697510Y873170D01*
G54D12*
X778360Y168130D02*
X779455Y163397D01*
X781481Y158981D01*
X784356Y155064D01*
X787960Y151807D01*
X792020Y149400D01*
X771090Y239350D02*
X770395Y234542D01*
X770560Y230550D01*
X799300Y320030D02*
X795283Y317297D01*
X791899Y313811D01*
X789287Y309714D01*
X787553Y305176D01*
X787440Y304740D01*
X1945760Y971790D02*
X1950407Y970371D01*
X1954650Y969920D01*
X1562160Y1452800D02*
X1560306Y1457291D01*
X1557585Y1461316D01*
X1554160Y1464670D01*
X1466490Y1534810D02*
X1462415Y1537457D01*
X1457891Y1539230D01*
X1453103Y1540055D01*
X1451780Y1540110D01*
X792020Y149400D02*
X855000Y120000D01*
X778360Y168160D02*
Y168130D01*
X770560Y230550D02*
X778360Y168160D01*
X799300Y320030D02*
X1050000Y455670D01*
X771090Y239350D02*
X787440Y304740D01*
X1325000Y120000D02*
X1560000D01*
X1090000D02*
X1325000D01*
X855000D02*
X1090000D01*
X1159990Y1544100D02*
X1451770Y1540110D01*
X719800Y1550120D02*
X1159990Y1544100D01*
X1750640Y1054270D02*
X1945710Y971810D01*
X1725390Y1064940D02*
X1750640Y1054270D01*
X2316220Y963860D02*
X2420000Y900000D01*
X1945710Y971810D02*
X1945760Y971790D01*
X1954650Y969920D02*
X2316220Y963860D01*
X2420000Y900000D02*
X2625000Y1052390D01*
X1590000Y1210000D02*
X1725390Y1064940D01*
X1590000Y1210000D02*
Y1360000D01*
X1554150Y1464680D02*
X1554160Y1464670D01*
X719800Y1550120D02*
X810000Y1697390D01*
X381890Y998430D02*
X719800Y1550120D01*
X1451770Y1540110D02*
X1451780D01*
X1466490Y1534810D02*
X1554150Y1464680D01*
X1562160Y1452800D02*
X1590000Y1360000D01*
X120000Y948470D02*
X381890Y801580D01*
X99710Y1499620D02*
X120000Y948470D01*
X99710Y1499620D02*
Y1599620D01*
G54D13*
X461690Y930280D02*
X459818Y934046D01*
X457123Y937276D01*
X456080Y938190D01*
X528200Y745010D02*
X530072Y741244D01*
X532766Y738015D01*
X534230Y736770D01*
X820130Y518710D02*
X823745Y516560D01*
X827759Y515308D01*
X831080Y515000D01*
X1110330Y509250D02*
X1107128Y511976D01*
X1103380Y513884D01*
X1099292Y514871D01*
X1097140Y515000D01*
X3079490Y968900D02*
X3083591Y969832D01*
X3087364Y971689D01*
X3090603Y974372D01*
X3093131Y977733D01*
X3094160Y979790D01*
X3098920Y1140110D02*
X3094750Y1139568D01*
X3090819Y1138072D01*
X3087343Y1135706D01*
X3084680Y1132830D01*
X2684960Y1130340D02*
X2682627Y1133839D01*
X2679546Y1136701D01*
X2675884Y1138770D01*
X2671843Y1139933D01*
X2669210Y1140170D01*
X3194790Y655910D02*
X3197932Y653115D01*
X3201636Y651124D01*
X3205701Y650048D01*
X3207950Y649870D01*
X2732730Y649910D02*
X2736899Y650466D01*
X2740825Y651975D01*
X2744295Y654352D01*
X2745170Y655170D01*
X1440090Y1066560D02*
X1439508Y1070725D01*
X1438710Y1073090D01*
X819790Y1154930D02*
X820476Y1150781D01*
X822107Y1146905D01*
X822760Y1145840D01*
X1286300Y910000D02*
Y1010000D01*
Y810000D02*
Y910000D01*
X1529020Y1158780D02*
X1590000Y1110000D01*
X1490000Y1235000D02*
Y1350000D01*
Y1235000D02*
X1529020Y1158780D01*
X1448690Y1444430D02*
X1470820Y1425980D01*
X1490000Y1350000D01*
X1305000Y1460000D02*
X1390000D01*
X1448690Y1444430D01*
X1210000Y1380000D02*
X1246600Y1428800D01*
X1305000Y1460000D01*
X1522140Y587550D02*
X1590000Y510000D01*
X1440090Y1066560D02*
X1446000Y830030D01*
X1522140Y587550D01*
X461690Y930280D02*
X461700Y930270D01*
X528200Y745010D01*
X534230Y736770D03*
X820130Y518710D01*
X831080Y515000D02*
X1097140D01*
X831080D03*
X1110330Y509250D02*
X1110340Y509240D01*
X381890Y998430D02*
X456080Y938190D01*
X1110340Y509240D02*
X1160000Y455670D01*
X2625000Y735000D02*
X2725000D01*
X2010580Y823980D02*
X2625000Y735000D01*
X1590000Y1110000D02*
X1814150Y914770D01*
X2010580Y823980D03*
X1814150Y914770D02*
X2010580Y823980D01*
X3079450Y968900D02*
X3079490D01*
X2420000Y900000D02*
X3079450Y968900D01*
X3094160Y979790D02*
X3125000Y1052390D01*
X3025000D02*
X3084680Y1132830D01*
X3098920Y1140110D03*
X3505000Y1145000D01*
X2669200Y1140170D02*
X2669210D01*
X2355000Y1145000D02*
X2669200Y1140170D01*
X2684960Y1130340D02*
X2725000Y1052390D01*
X2925000D02*
X3155000Y1445000D01*
X2705000D02*
X2825000Y1052390D01*
X3125000Y735000D02*
X3194790Y655910D01*
X3207950Y649870D03*
X3505000Y645000D01*
X3025000Y735000D02*
X3155000Y345000D01*
X2705000D02*
X2925000Y735000D01*
X2745170Y655170D02*
X2825000Y735000D01*
X2732680Y649910D02*
X2732730D01*
X2355000Y645000D02*
X2732680Y649910D01*
X3155000Y245000D02*
X3605000Y645000D01*
X2705000Y245000D02*
X3155000D01*
X2255000Y645000D02*
X2705000Y245000D01*
X2110000Y650000D02*
X2255000Y645000D01*
X3155000Y1545000D02*
X3605000Y1145000D01*
X2705000Y1545000D02*
X3155000D01*
X2255000Y1145000D02*
X2705000Y1545000D01*
X2110000Y1140000D02*
X2255000Y1145000D01*
X1438690Y1073120D02*
X1438710Y1073090D01*
X1310000Y1380000D02*
X1438690Y1073120D01*
X1160000Y455670D02*
X1286300Y610000D01*
X1160000Y810000D02*
X1286300D01*
X822760Y1145840D02*
X912000Y1011000D01*
X890000Y668470D02*
X912000Y1011000D01*
X819780Y1154990D02*
Y1154930D01*
X810000Y1380000D02*
X819780Y1154990D01*
X910000Y1380000D02*
X912000Y1209000D01*
X1108000Y1110000D01*
X1286300D01*
G54D14*
X810000Y1697390D03*
X1590000Y1210000D03*
X2625000Y1052390D03*
X1410000Y1697390D03*
X1310000D03*
X1210000D03*
X1110000D03*
X1010000D03*
X910000D03*
X1410000Y1380000D03*
X1310000D03*
X1210000D03*
X1110000D03*
X1010000D03*
X910000D03*
X1286300Y1110000D03*
Y1010000D03*
Y910000D03*
Y810000D03*
Y710000D03*
Y610000D03*
Y510000D03*
X1590000Y1110000D03*
Y1010000D03*
Y910000D03*
Y810000D03*
Y710000D03*
Y610000D03*
Y510000D03*
X3225000Y1052390D03*
X3125000D03*
X3025000D03*
X2925000D03*
X2825000D03*
X2725000D03*
X3225000Y735000D03*
X3125000D03*
X3025000D03*
X2925000D03*
X2825000D03*
X2725000D03*
G54D15*
X2110000Y1140000D03*
X1755670D03*
Y650000D03*
X2110000D03*
X1050000Y455670D03*
Y810000D03*
X1160000D03*
Y455670D03*
G54D16*
X618110Y998430D03*
Y900000D03*
Y801580D03*
X381890Y900000D03*
Y801580D03*
X2705000Y345000D03*
Y245000D03*
X3155000Y345000D03*
Y245000D03*
X3505000Y645000D03*
X3605000D03*
X3505000Y1145000D03*
X3605000D03*
X3155000Y1445000D03*
Y1545000D03*
X2705000Y1445000D03*
Y1545000D03*
X2355000Y1145000D03*
X2255000D03*
X2355000Y645000D03*
X2255000D03*
X855000Y120000D03*
X1090000D03*
X1325000D03*
X1560000D03*
G54D17*
X381890Y998430D03*
X855000Y220000D03*
X1090000D03*
X1325000D03*
X1560000D03*
G54D18*
X120000Y948470D03*
X99710Y199620D03*
Y1499620D03*
X890000Y668470D03*
G54D19*
X120000Y851530D03*
X99710Y299620D03*
Y1599620D03*
X890000Y571530D03*
G54D20*
X912000Y1011000D03*
X1108000Y1110000D03*
X912000Y1209000D03*
G54D21*
X810000Y1380000D03*
X2625000Y735000D03*
X1286300Y1210000D03*
G54D22*
X2420000Y900000D03*
X2220000D03*
X1590000Y1360000D03*
Y1560000D03*
%LPC*%
G75*
X1590000Y1560000D02*
G54D23*
X2136870Y582750D02*
X1780379D01*
X1700000Y0D01*
X0D01*
Y1800000D01*
X1700000D01*
X1780975Y1212930D01*
X2135160D01*
X2146254Y1239762D01*
X2158254Y1266200D01*
X2171145Y1292216D01*
X2184912Y1317779D01*
X2199541Y1342859D01*
X2215013Y1367428D01*
X2231312Y1391456D01*
X2248418Y1414917D01*
X2266311Y1437783D01*
X2284970Y1460027D01*
X2304375Y1481625D01*
X2324503Y1502550D01*
X2345330Y1522780D01*
X2366833Y1542290D01*
X2388986Y1561058D01*
X2411765Y1579062D01*
X2435142Y1596282D01*
X2459091Y1612697D01*
X2483583Y1628289D01*
X2508592Y1643040D01*
X2534087Y1656932D01*
X2560040Y1669950D01*
X2586420Y1682078D01*
X2613197Y1693303D01*
X2640340Y1703611D01*
X2667818Y1712991D01*
X2695599Y1721431D01*
X2723650Y1728923D01*
X2751940Y1735457D01*
X2780436Y1741026D01*
X2809104Y1745623D01*
X2837912Y1749243D01*
X2866826Y1751882D01*
X2895814Y1753537D01*
X2924841Y1754206D01*
X2953873Y1753888D01*
X2982879Y1752583D01*
X3011823Y1750294D01*
X3040673Y1747022D01*
X3069394Y1742772D01*
X3097955Y1737548D01*
X3126322Y1731356D01*
X3154462Y1724204D01*
X3182342Y1716100D01*
X3209931Y1707053D01*
X3237197Y1697074D01*
X3264108Y1686174D01*
X3290633Y1674365D01*
X3316741Y1661662D01*
X3342402Y1648079D01*
X3367587Y1633632D01*
X3392267Y1618337D01*
X3416412Y1602212D01*
X3439996Y1585276D01*
X3462990Y1567549D01*
X3485369Y1549050D01*
X3507106Y1529801D01*
X3528176Y1509825D01*
X3548555Y1489144D01*
X3568220Y1467782D01*
X3587147Y1445765D01*
X3605315Y1423117D01*
X3622703Y1399865D01*
X3639291Y1376035D01*
X3655059Y1351656D01*
X3669989Y1326754D01*
X3684065Y1301359D01*
X3697270Y1275501D01*
X3709588Y1249209D01*
X3721005Y1222514D01*
X3731509Y1195446D01*
X3741087Y1168036D01*
X3749728Y1140317D01*
X3757421Y1112321D01*
X3764159Y1084079D01*
X3769933Y1055624D01*
X3774737Y1026990D01*
X3778565Y998209D01*
X3781413Y969314D01*
X3783277Y940339D01*
X3784155Y911318D01*
X3784046Y882284D01*
X3782951Y853270D01*
X3780870Y824310D01*
X3777807Y795437D01*
X3773764Y766685D01*
X3768746Y738088D01*
X3762759Y709677D01*
X3755810Y681486D01*
X3747907Y653548D01*
X3739060Y625894D01*
X3729277Y598557D01*
X3718571Y571569D01*
X3706954Y544959D01*
X3694440Y518760D01*
X3681042Y493001D01*
X3666777Y467713D01*
X3651661Y442924D01*
X3635711Y418663D01*
X3618945Y394958D01*
X3601384Y371836D01*
X3583047Y349325D01*
X3563956Y327450D01*
X3544132Y306236D01*
X3523598Y285708D01*
X3502379Y265890D01*
X3480499Y246804D01*
X3457983Y228473D01*
X3434857Y210918D01*
X3411147Y194159D01*
X3386882Y178215D01*
X3362089Y163105D01*
X3336796Y148847D01*
X3311034Y135456D01*
X3284832Y122949D01*
X3258219Y111339D01*
X3231228Y100640D01*
X3203888Y90865D01*
X3176232Y82025D01*
X3148292Y74129D01*
X3120099Y67188D01*
X3091687Y61208D01*
X3063088Y56198D01*
X3034335Y52163D01*
X3005462Y49107D01*
X2976501Y47034D01*
X2947487Y45946D01*
X2918452Y45846D01*
X2889431Y46731D01*
X2860457Y48603D01*
X2831563Y51458D01*
X2802783Y55294D01*
X2774150Y60105D01*
X2745697Y65887D01*
X2717457Y72632D01*
X2689462Y80334D01*
X2661745Y88982D01*
X2634339Y98567D01*
X2607273Y109078D01*
X2580581Y120502D01*
X2554292Y132827D01*
X2528438Y146039D01*
X2503047Y160121D01*
X2478149Y175059D01*
X2453774Y190833D01*
X2429948Y207427D01*
X2406701Y224821D01*
X2384058Y242996D01*
X2362045Y261929D01*
X2340689Y281599D01*
X2320014Y301984D01*
X2300043Y323059D01*
X2280800Y344801D01*
X2262307Y367185D01*
X2244586Y390184D01*
X2227656Y413772D01*
X2211538Y437921D01*
X2196249Y462605D01*
X2181809Y487794D01*
X2168233Y513459D01*
X2155537Y539570D01*
X2143735Y566098D01*
X2139340Y576644D01*
X2136870Y582750D01*
G54D24*
X1794070Y567041D03*
X2126305D03*
X2124533Y1228639D03*
X1794666D03*
M02*
